Coordinates
version=1
nRows=36
nColumns=30
inDegrees=yes

Units are S.I. units (second, meters, Newtons, ...)
Angles are in degrees.

endheader
time	floatyaw	floatroll	floatpitch	floatx	floaty	floatz	pro_sup_l	deviation_l	flexion_l	cmc_flexion_l	cmc_abduction_l	mp_flexion_l	ip_flexion_l	2mcp_flexion_l	2mcp_abduction_l	2pm_flexion_l	2md_flexion_l	3mcp_flexion_l	3mcp_abduction_l	3pm_flexion_l	3md_flexion_l	4mcp_flexion_l	4mcp_abduction_l	4pm_flexion_l	4md_flexion_l	5mcp_flexion_l	5mcp_abduction_l	5pm_flexion_l	5md_flexion_l
0.005000	-160.147433	-5.066637	-73.570646	-0.065320	-0.135999	-0.109795	109.075621	30.704705	-12.265168	16.590991	14.721656	-33.650351	-55.030826	46.626930	16.252142	54.811586	59.972650	45.158241	6.462258	74.124118	47.855355	44.056018	-6.522950	80.349161	64.146693	44.363825	-14.723944	86.951806	68.075158
0.015000	-160.147433	-5.066637	-73.570646	-0.065577	-0.133786	-0.109582	107.985213	30.394669	-12.620699	16.695093	15.234060	-33.865758	-55.439361	47.271681	16.305558	54.640491	60.184774	45.742310	6.493995	74.078195	47.869953	44.539204	-6.544367	80.198653	64.498410	44.863112	-14.766804	87.478878	68.649514
0.025000	-160.147433	-5.066637	-73.570646	-0.065806	-0.131166	-0.109440	107.009713	30.156171	-12.995622	16.828441	16.119013	-33.979485	-55.834254	48.110061	16.357115	54.277641	60.320457	46.494463	6.521507	73.859400	47.775400	45.162348	-6.560541	79.984922	64.842112	45.606061	-14.825072	88.178947	69.328644
0.035000	-160.147433	-5.066637	-73.570646	-0.066022	-0.128393	-0.109401	106.215741	30.018027	-13.370076	16.961879	17.282364	-34.006327	-56.209977	49.174124	16.415567	53.693716	60.392173	47.441494	6.538360	73.469400	47.546576	45.978083	-6.571514	79.691749	65.176426	46.600381	-14.899809	88.945967	70.029933
0.045000	-160.147433	-5.066637	-73.570646	-0.066222	-0.125822	-0.109465	105.594070	29.960197	-13.695279	17.073434	18.562684	-33.984106	-56.557801	50.383366	16.484653	52.938656	60.414531	48.520544	6.538664	72.949585	47.204703	46.930023	-6.580322	79.331751	65.489795	47.726659	-14.980795	89.641017	70.634131
0.055000	-160.147433	-5.066637	-73.570646	-0.066388	-0.123812	-0.109598	105.061890	29.922042	-13.914117	17.153083	19.784158	-33.953288	-56.864069	51.574572	16.562436	52.129580	60.409833	49.592972	6.520138	72.384193	46.814368	47.872165	-6.591276	78.952462	65.770450	48.788997	-15.051627	90.154119	71.042335
0.065000	-160.147433	-5.066637	-73.570646	-0.066493	-0.122600	-0.109752	104.511224	29.833300	-13.987257	17.197356	20.811318	-33.932210	-57.105498	52.562050	16.642042	51.407250	60.409524	50.489793	6.486324	71.877435	46.461115	48.627344	-6.607325	78.618384	66.013944	49.595465	-15.098449	90.443507	71.224068
0.075000	-160.147433	-5.066637	-73.570646	-0.066511	-0.122205	-0.109886	103.876907	29.651192	-13.908077	17.200400	21.579395	-33.906393	-57.250055	53.202572	16.713905	50.881526	60.445295	51.071315	6.445903	71.514282	46.217045	49.057794	-6.628214	78.378819	66.220810	50.027466	-15.116576	90.531880	71.224781
0.085000	-160.147433	-5.066637	-73.570646	-0.066423	-0.122429	-0.109980	103.176621	29.381652	-13.699547	17.151343	22.091439	-33.839799	-57.267452	53.439248	16.769182	50.593788	60.533402	51.274621	6.409082	71.329305	46.111729	49.114298	-6.650665	78.245392	66.387436	50.070822	-15.111349	90.474129	71.131335
0.095000	-160.147433	-5.066637	-73.570646	-0.066229	-0.122946	-0.110036	102.494018	29.073307	-13.398457	17.041633	22.393035	-33.698829	-57.143855	53.308840	16.802989	50.514578	60.662952	51.127518	6.383126	71.302493	46.124295	48.842329	-6.670292	78.196018	66.499598	49.803222	-15.093719	90.327353	71.022252
0.105000	-160.147433	-5.066637	-73.570646	-0.065955	-0.123444	-0.110060	101.921072	28.790984	-13.038204	16.876015	22.541835	-33.472169	-56.890844	52.913643	16.815764	50.572750	60.797091	50.725262	6.369705	71.380611	46.199406	48.347924	-6.683808	78.199068	66.535190	49.350569	-15.074104	90.139230	70.934208
0.115000	-160.147433	-5.066637	-73.570646	-0.065641	-0.123728	-0.110052	101.504485	28.586491	-12.639514	16.677291	22.583894	-33.175517	-56.542862	52.375123	16.812165	50.694194	60.887934	50.185941	6.365368	71.506410	46.275737	47.747169	-6.690191	78.235761	66.474894	48.835545	-15.058216	89.948175	70.859128
0.125000	-160.147433	-5.066637	-73.570646	-0.065326	-0.123754	-0.110001	101.229946	28.481784	-12.212398	16.480584	22.541839	-32.841981	-56.145450	51.793019	16.798536	50.826919	60.898362	49.609057	6.364407	71.637808	46.310979	47.127454	-6.690532	78.304267	66.314372	48.341825	-15.046419	89.782422	70.765000
0.135000	-160.147433	-5.066637	-73.570646	-0.065036	-0.123591	-0.109896	101.044577	28.468582	-11.765420	16.320828	22.415474	-32.506867	-55.741465	51.226277	16.780633	50.943828	60.820102	49.054773	6.362134	71.751123	46.292948	46.534959	-6.687081	78.407067	66.071168	47.905231	-15.035805	89.654731	70.622837
0.145000	-160.147433	-5.066637	-73.570646	-0.064778	-0.123349	-0.109734	100.893388	28.518777	-11.314100	16.220861	22.192328	-32.195789	-55.361316	50.696885	16.762550	51.031551	60.678502	48.545710	6.356716	71.834726	46.235295	45.983671	-6.682221	78.536358	65.781869	47.526084	-15.023028	89.559290	70.424285
0.155000	-160.147433	-5.066637	-73.570646	-0.064546	-0.123122	-0.109530	100.744383	28.597174	-10.881929	16.185533	21.862462	-31.920212	-55.018978	50.205457	16.746741	51.080499	60.520229	48.080969	6.348995	71.883311	46.163073	45.470987	-6.677797	78.671210	65.489037	47.187825	-15.006260	89.477290	70.183304
0.165000	-160.147433	-5.066637	-73.570646	-0.064326	-0.122962	-0.109310	100.592161	28.671208	-10.493737	16.202890	21.429797	-31.679410	-54.712589	49.745464	16.734473	51.084969	60.389360	47.650223	6.341016	71.897616	46.096727	44.988355	-6.674931	78.788175	65.223024	46.870409	-14.985666	89.389529	69.924970
0.175000	-160.147433	-5.066637	-73.570646	-0.064105	-0.122876	-0.109107	100.445952	28.716561	-10.166628	16.250320	20.913936	-31.465527	-54.428131	49.309610	16.726202	51.050186	60.305259	47.241696	6.334475	71.886596	46.042614	44.525069	-6.674154	78.875224	64.988827	46.556070	-14.962790	89.287383	69.670607
0.185000	-160.147433	-5.066637	-73.570646	-0.063875	-0.122850	-0.108945	100.314853	28.719719	-9.904348	16.302562	20.341776	-31.268687	-54.145295	48.889925	16.721766	50.996211	60.255924	46.844597	6.329946	71.866376	45.993961	44.069650	-6.675618	78.936826	64.767051	46.230844	-14.939630	89.174494	69.428777
0.195000	-160.147433	-5.066637	-73.570646	-0.063628	-0.122863	-0.108834	100.199626	28.678400	-9.697693	16.339093	19.734138	-31.080516	-53.844549	48.476831	16.720510	50.951419	60.211221	46.449477	6.326985	71.853982	45.939707	43.612710	-6.679190	78.986332	64.529572	45.885612	-14.917988	89.058976	69.196590
0.205000	-160.147433	-5.066637	-73.570646	-0.063365	-0.122897	-0.108771	100.092866	28.599930	-9.529671	16.349245	19.096044	-30.895802	-53.514064	48.061055	16.721435	50.937469	60.147322	46.049189	6.324697	71.859366	45.874075	43.151143	-6.684414	79.032415	64.260292	45.518097	-14.899254	88.943078	68.968856
0.215000	-160.147433	-5.066637	-73.570646	-0.063090	-0.122946	-0.108741	99.983721	28.497523	-9.382218	16.334027	18.417422	-30.712772	-53.154478	47.638271	16.723382	50.955346	60.065930	45.640949	6.322264	71.881082	45.800302	42.690620	-6.690536	79.070392	63.967664	45.134673	-14.884383	88.818514	68.747777
0.225000	-160.147433	-5.066637	-73.570646	-0.062808	-0.123006	-0.108724	99.862609	28.385323	-9.241519	16.304142	17.684091	-30.532472	-52.779130	47.213150	16.725243	50.982724	59.994820	45.228338	6.319176	71.908203	45.726995	42.243833	-6.696712	79.084603	63.681109	44.749636	-14.873788	88.670969	68.545732
0.235000	-160.147433	-5.066637	-73.570646	-0.062529	-0.123073	-0.108707	99.723809	28.274030	-9.100425	16.274788	16.891678	-30.357709	-52.408671	46.799296	16.726206	50.985724	59.968473	44.821617	6.315208	71.926497	45.660809	41.824925	-6.702363	79.059361	63.433956	44.380525	-14.867125	88.490398	68.378519
0.245000	-160.147433	-5.066637	-73.570646	-0.062260	-0.123145	-0.108680	99.566215	28.168837	-8.958065	16.259410	16.053373	-30.192098	-52.062347	46.414371	16.725962	50.938146	60.001767	44.435468	6.310378	71.924649	45.600946	41.443280	-6.707431	78.990213	63.244000	44.040909	-14.863201	88.279503	68.253575
0.255000	-160.147433	-5.066637	-73.570646	-0.062007	-0.123216	-0.108642	99.393202	28.070175	-8.817785	16.265266	15.197137	-30.039434	-51.750884	46.072890	16.724711	50.836044	60.075274	44.084580	6.304958	71.897546	45.539072	41.100151	-6.712331	78.888004	63.103708	43.734448	-14.860238	88.054019	68.162008
0.265000	-160.147433	-5.066637	-73.570646	-0.061774	-0.123279	-0.108599	99.212116	27.976344	-8.684771	16.292425	14.354877	-29.902806	-51.474422	45.780331	16.722904	50.699399	60.142311	43.778815	6.299490	71.846212	45.464440	40.789412	-6.717631	78.774061	62.984976	43.453872	-14.856423	87.834521	68.080805
0.275000	-160.147433	-5.066637	-73.570646	-0.061562	-0.123330	-0.108554	99.033230	27.886324	-8.564238	16.335473	13.550196	-29.782839	-51.224939	45.531148	16.720852	50.561591	60.152220	43.520214	6.294727	71.775586	45.370850	40.501252	-6.723656	78.670501	62.853843	43.185500	-14.850552	87.635682	67.983863
0.285000	-160.147433	-5.066637	-73.570646	-0.061366	-0.123369	-0.108512	98.867827	27.801246	-8.460218	16.385879	12.790842	-29.675791	-50.990474	45.311344	16.718471	50.453798	60.074877	43.303126	6.291472	71.691515	45.261319	40.226610	-6.730266	78.591291	62.685955	42.916490	-14.842519	87.460159	67.854434
0.295000	-160.147433	-5.066637	-73.570646	-0.061184	-0.123397	-0.108477	98.725381	27.723982	-8.374553	16.433736	12.068789	-29.573478	-50.759453	45.104247	16.715315	50.392164	59.913803	43.116966	6.290390	71.598163	45.148257	39.960425	-6.736906	78.537674	62.475975	42.640696	-14.833495	87.299999	67.692139
0.305000	-160.147433	-5.066637	-73.570646	-0.061012	-0.123420	-0.108446	98.610551	27.657390	-8.306081	16.469193	11.367637	-29.466271	-50.524951	44.896713	16.710811	50.372927	59.703436	42.949882	6.291812	71.496943	45.049559	39.702488	-6.742882	78.498957	62.238677	42.360428	-14.825564	87.142981	67.512469
0.315000	-160.147433	-5.066637	-73.570646	-0.060847	-0.123443	-0.108417	98.521365	27.602453	-8.250606	16.484532	10.674241	-29.347986	-50.288166	44.682965	16.704527	50.376888	59.493421	42.791861	6.295599	71.387465	44.982407	39.455853	-6.747750	78.457934	62.002230	42.084081	-14.820743	86.979055	67.339967
0.325000	-160.147433	-5.066637	-73.570646	-0.060688	-0.123469	-0.108390	98.449971	27.557485	-8.202241	16.476720	9.989022	-29.219465	-50.058893	44.464763	16.696329	50.380103	59.327871	42.636567	6.301104	71.269836	44.956827	39.223974	-6.751581	78.398650	61.795977	41.821688	-14.819781	86.803583	67.197552
0.335000	-160.147433	-5.066637	-73.570646	-0.060534	-0.123501	-0.108360	98.386261	27.518968	-8.155807	16.448937	9.328836	-29.088205	-49.851385	44.248439	16.686397	50.364552	59.229895	42.481656	6.307288	71.146812	44.971373	39.008317	-6.754915	78.313060	61.637637	41.581090	-14.821450	86.617061	67.095961
0.345000	-160.147433	-5.066637	-73.570646	-0.060388	-0.123540	-0.108329	98.322701	27.483481	-8.108932	16.409627	8.720227	-28.964146	-49.676986	44.040684	16.675151	50.323566	59.198213	42.327633	6.313023	71.024468	45.013052	38.807557	-6.758416	78.203815	61.526098	41.366434	-14.822910	86.423219	67.028346
0.355000	-160.147433	-5.066637	-73.570646	-0.060249	-0.123584	-0.108295	98.257307	27.449310	-8.062422	16.369064	8.187271	-28.854463	-49.537680	43.845394	16.663174	50.261063	59.214443	42.176063	6.317512	70.910956	45.061815	38.618289	-6.762468	78.082687	61.443310	41.178818	-14.821119	86.227645	66.973183
